<?xml version="1.0" encoding="utf-8"?>
<!-- Generator: Adobe Illustrator 27.5.0, SVG Export Plug-In . SVG Version: 6.00 Build 0)  -->
<svg version="1.1" xmlns="http://www.w3.org/2000/svg" xmlns:xlink="http://www.w3.org/1999/xlink" x="0px" y="0px"
	 viewBox="0 0 500 500" style="enable-background:new 0 0 500 500;" xml:space="preserve">
<g id="BACKGROUND">
	<rect x="1546.51" y="518.17" style="display:none;fill:#FFC9DB;" width="500" height="500"/>
	<rect x="2056.68" y="514.17" style="display:none;fill:#FFFFFF;" width="500" height="500"/>
	<rect x="514.17" style="display:none;fill:#F1EBE0;" width="500" height="500"/>
	<rect x="514.17" y="514.17" style="display:none;fill:#FFFFFF;" width="500" height="500"/>
	<rect y="514.17" style="display:none;fill:#FFF8CE;" width="500" height="500"/>
	<rect style="display:none;fill:#E2F6FF;" width="500" height="500"/>
	<rect x="1028.34" style="display:none;fill:#FFC9DB;" width="500" height="500"/>
	<rect x="1028.34" y="514.17" style="display:none;fill:#EEEAFF;" width="500" height="500"/>
	<rect x="2056.68" style="display:none;fill:#FFFFFF;" width="500" height="500"/>
	<rect x="1542.51" style="display:none;fill:#E9DBFF;" width="500" height="500"/>
	<rect style="fill:#DBF8FF;" width="500" height="500"/>
</g>
<g id="OBJECTS">
	<g>
		<circle style="fill:#96B9FF;" cx="250.113" cy="383.44" r="36.446"/>
		<path style="fill:#96B9FF;" d="M251.674,251.193c-36.857,0-70.75,12.684-97.555,33.923c-12.289,9.737-12.889,28.164-1.102,38.503
			l0,0c9.058,7.945,22.523,8.333,31.949,0.829c18.309-14.576,41.485-23.294,66.708-23.294c25.223,0,48.399,8.718,66.708,23.294
			c9.426,7.504,22.891,7.116,31.949-0.829h0c11.787-10.339,11.187-28.766-1.102-38.503
			C322.424,263.877,288.531,251.193,251.674,251.193z"/>
		<path style="fill:#96B9FF;" d="M251.674,148.286c-67.361,0-128.598,26.187-174.108,68.929
			c-11.872,11.149-11.511,30.126,0.733,40.865l0,0c10.635,9.329,26.664,9.176,36.97-0.515
			c35.64-33.512,83.623-54.045,136.405-54.045c52.781,0,100.764,20.533,136.405,54.045c10.307,9.691,26.335,9.844,36.97,0.515l0,0
			c12.244-10.74,12.604-29.716,0.733-40.865C380.272,174.473,319.035,148.286,251.674,148.286z"/>
	</g>
	<g>
		
			<ellipse transform="matrix(0.1602 -0.9871 0.9871 0.1602 -161.0011 562.5754)" style="fill:#4FBBC0;" cx="250.113" cy="375.905" rx="36.446" ry="36.446"/>
		<path style="fill:#4FBBC0;" d="M251.674,243.659c-36.857,0-70.75,12.684-97.555,33.923c-12.289,9.737-12.889,28.164-1.102,38.503
			v0c9.058,7.945,22.523,8.333,31.949,0.829c18.309-14.576,41.485-23.294,66.708-23.294c25.223,0,48.399,8.718,66.708,23.294
			c9.426,7.504,22.891,7.116,31.949-0.829h0c11.787-10.339,11.187-28.766-1.102-38.502
			C322.424,256.342,288.531,243.659,251.674,243.659z"/>
		<path style="fill:#4FBBC0;" d="M251.674,140.751c-67.361,0-128.598,26.187-174.108,68.929
			c-11.872,11.149-11.511,30.126,0.733,40.865v0c10.635,9.329,26.664,9.176,36.97-0.515c35.64-33.512,83.623-54.045,136.405-54.045
			c52.781,0,100.764,20.533,136.405,54.045c10.307,9.691,26.335,9.844,36.97,0.515l0,0c12.244-10.74,12.604-29.716,0.733-40.865
			C380.272,166.939,319.035,140.751,251.674,140.751z"/>
	</g>
	<g>
		
			<ellipse transform="matrix(0.1602 -0.9871 0.9871 0.1602 -161.0011 562.5754)" style="fill:#6894FB;" cx="250.113" cy="375.905" rx="36.446" ry="36.446"/>
		<path style="fill:#6894FB;" d="M251.674,243.659c-36.857,0-70.75,12.684-97.555,33.923c-12.289,9.737-12.889,28.164-1.102,38.503
			v0c9.058,7.945,22.523,8.333,31.949,0.829c18.309-14.576,41.485-23.294,66.708-23.294c25.223,0,48.399,8.718,66.708,23.294
			c9.426,7.504,22.891,7.116,31.949-0.829h0c11.787-10.339,11.187-28.766-1.102-38.502
			C322.424,256.342,288.531,243.659,251.674,243.659z"/>
		<path style="fill:#6894FB;" d="M251.674,140.751c-67.361,0-128.598,26.187-174.108,68.929
			c-11.872,11.149-11.511,30.126,0.733,40.865v0c10.635,9.329,26.664,9.176,36.97-0.515c35.64-33.512,83.623-54.045,136.405-54.045
			c52.781,0,100.764,20.533,136.405,54.045c10.307,9.691,26.335,9.844,36.97,0.515l0,0c12.244-10.74,12.604-29.716,0.733-40.865
			C380.272,166.939,319.035,140.751,251.674,140.751z"/>
	</g>
	<g>
		<g>
			<path style="fill:#396FBB;" d="M273.86,134.28c0,7.43-7.809,9.953-17.442,9.953c-9.633,0-17.442-2.523-17.442-9.953v-11.442
				h34.884V134.28z"/>
			<path style="fill:#EEA752;" d="M274.279,94.373c0-9.864-7.996-17.86-17.86-17.86c-9.864,0-17.86,7.996-17.86,17.86v30.977h35.497
				L274.279,94.373z"/>
			<g>
				<path style="fill:#ECB3C2;" d="M231.315,95.699v11.791c0,3.33,1.568,6.466,4.232,8.464l3.954,2.965V95.885
					C239.501,95.885,230.757,95.699,231.315,95.699z"/>
				<path style="fill:#ECB3C2;" d="M281.522,95.699v11.791c0,3.33-1.568,6.466-4.232,8.464l-3.954,2.965V95.885
					C273.336,95.885,282.08,95.699,281.522,95.699z"/>
			</g>
			<path style="fill:#EEA752;" d="M264.091,77.164h-15.344c-10.045,0-18.189,8.143-18.189,18.189v1.16h51.721v-1.16
				C282.279,85.307,274.136,77.164,264.091,77.164z"/>
			
				<line style="fill:none;stroke:#DA822C;stroke-width:0.75;stroke-linecap:round;stroke-linejoin:round;stroke-miterlimit:10;" x1="238.558" y1="94.373" x2="238.558" y2="88.373"/>
			
				<line style="fill:none;stroke:#DA822C;stroke-width:0.75;stroke-linecap:round;stroke-linejoin:round;stroke-miterlimit:10;" x1="273.802" y1="94.373" x2="273.802" y2="88.373"/>
			<path style="fill:#2B5598;" d="M253.218,176.885c0,3.493-3.165,4.837-7.07,4.837c-3.905,0-7.07-1.344-7.07-4.837
				s3.165-7.814,7.07-7.814C250.053,169.071,253.218,173.391,253.218,176.885z"/>
			<path style="fill:#2B5598;" d="M273.683,176.885c0,3.493-3.165,4.837-7.07,4.837c-3.905,0-7.07-1.344-7.07-4.837
				s3.165-7.814,7.07-7.814C270.518,169.071,273.683,173.391,273.683,176.885z"/>
			<g>
				<path style="fill:#4675D2;" d="M253.289,172.42h-14.396v-36.617c0-3.975,3.223-7.198,7.198-7.198h0
					c3.975,0,7.198,3.223,7.198,7.198V172.42z"/>
				<path style="fill:#4675D2;" d="M273.945,172.42h-14.396v-36.617c0-3.975,3.223-7.198,7.198-7.198l0,0
					c3.975,0,7.198,3.223,7.198,7.198V172.42z"/>
			</g>
			<g>
				<path style="fill:#C3DFF6;" d="M273.84,117.589h-35.215c-0.846,0-1.532-0.686-1.532-1.532v-21.48
					c0-0.846,0.686-1.532,1.532-1.532h35.215c0.846,0,1.532,0.686,1.532,1.532v21.48
					C275.372,116.903,274.686,117.589,273.84,117.589z"/>
				<path style="fill:#ABD0E9;" d="M274.87,118.005h-37.275c-0.277,0-0.502-0.225-0.502-0.502v-1.63
					c0-0.277,0.225-0.502,0.502-0.502h37.275c0.277,0,0.502,0.225,0.502,0.502v1.63C275.372,117.78,275.147,118.005,274.87,118.005z
					"/>
				<path style="fill:#E8FAFF;" d="M258.744,104.048c0,1.387-1.125,2.512-2.512,2.512c-1.387,0-2.512-1.125-2.512-2.512
					s1.124-2.512,2.512-2.512C257.62,101.536,258.744,102.661,258.744,104.048z"/>
			</g>
			<path style="fill:#ECB3C2;" d="M256.419,83.106L256.419,83.106c-2.967,0-5.395-2.428-5.395-5.395v-4.493
				c0-1.52,1.243-2.763,2.763-2.763h5.265c1.52,0,2.763,1.243,2.763,2.763v4.493C261.814,80.678,259.386,83.106,256.419,83.106z"/>
			<g>
				<path style="fill:#FFCED9;" d="M266.006,64.836c0,6.775-7.052,11.902-14.215,8.444c-3.024-1.46-4.892-4.587-4.892-7.945v-5.871
					c0-3.693,2.994-6.688,6.688-6.688h5.869c3.761,0,6.783,3.101,6.685,6.861L266.006,64.836z"/>
				<circle style="fill:#FFCED9;" cx="247.139" cy="63.583" r="3.209"/>
				<circle style="fill:#FFCED9;" cx="265.698" cy="63.583" r="3.209"/>
			</g>
			<path style="fill:none;stroke:#E4A7B7;stroke-width:0.5;stroke-linecap:round;stroke-linejoin:round;stroke-miterlimit:10;" d="
				M253.311,69.257c0,0,0.744,1.116,3.07,1.023c2.326-0.093,3.628-1.116,3.628-1.116"/>
			<path style="fill:#2B5598;" d="M261.71,48.358c-5.848-1.569-17.76-2.706-18.115,2.853c-0.11,1.727,0.996,2.893,2.692,3.676
				l0.559,8.929l1.316-8.263c5.158,1.387,12.835,0.65,12.835,0.65c4.85,0.428,4.737,7.842,4.737,7.842s0.969-4.847,0.969-6.416
				S267.558,49.927,261.71,48.358z"/>
			<path style="fill:#4A78BB;" d="M253.055,49.304c0,0.476-4.392,1.584-5.232,1.584s-1.522-0.386-1.522-0.862s0.336-1.42,2.778-1.42
				C251.311,48.606,253.055,48.828,253.055,49.304z"/>
			<g>
				<path style="fill:#2B5598;" d="M263.415,47.927c0.301,0.747-0.421,1.742-0.421,1.742s-1.21-0.216-1.511-0.963
					c-0.301-0.747-0.113-1.527,0.421-1.742C262.437,46.749,263.114,47.18,263.415,47.927z"/>
				<path style="fill:#2B5598;" d="M265.139,49.434c-0.501,0.63-1.723,0.493-1.723,0.493s-0.409-1.159,0.093-1.79
					c0.501-0.63,1.273-0.851,1.723-0.493C265.682,48.002,265.64,48.804,265.139,49.434z"/>
			</g>
		</g>
		<g>
			<path style="fill:#EEA752;" d="M166.863,221.469c0-9.202-0.624-16.661-5.554-16.661c-7.141,0-12.298,7.46-12.298,16.661H166.863z
				"/>
			<path style="fill:#2B5598;" d="M140.207,294.893c0,0-10.478,2.798-11.778,6.046c-1.372,3.431-0.686,5.489-0.686,5.489
				s23.672,1.029,23.672-1.715c0-2.745,0.35-9.82,0.35-9.82H140.207z"/>
			<path style="fill:#396FBB;" d="M187.137,256.564c0,5.256-7.222,9.517-16.132,9.517c-8.909,0-16.132-4.261-16.132-9.517v-6.044
				h32.094L187.137,256.564z"/>
			<path style="fill:#EEA752;" d="M187.095,251.171H152.88v-29.714c0,0,0.706-16.188,13.424-17.435
				c10.658-1.045,15.816,2.276,18.692,6.021C190.827,217.636,187.095,251.171,187.095,251.171z"/>
			<path style="fill:#2B5598;" d="M134.574,249.993l-7.551-0.291c-2.892-0.111-5.674,1.089-7.57,3.276
				c-3.989,4.604-9.93,12.332-6.088,13.612c5.533,1.844,19.364-6.916,19.364-6.916L134.574,249.993z"/>
			<path style="fill:#ECB3C2;" d="M154.045,242.345c0,3.944-2.575,7.141-5.752,7.141c-3.177,0-5.752-3.197-5.752-7.141
				s2.575-7.141,5.752-7.141C151.47,235.204,154.045,238.401,154.045,242.345z"/>
			<polygon style="fill:#2B5598;" points="146.73,251.404 159.571,251.404 166.455,265.729 149.897,265.729 			"/>
			<path style="fill:none;stroke:#DA822C;stroke-width:0.75;stroke-linecap:round;stroke-linejoin:round;stroke-miterlimit:10;" d="
				M154.641,213.73c0,0-1.116,9.86-1.116,10.977"/>
			<path style="fill:#396FBB;" d="M152.509,295.265c0,0-1.124,2.977-6.705,2.837c-5.581-0.14-7.691-2.837-7.691-2.837v-36.617
				c0-3.975,3.223-7.198,7.198-7.198l0,0c3.976,0,7.198,3.223,7.198,7.198V295.265z"/>
			<path style="fill:#4675D2;" d="M127.891,261.888c0,0-1.808-2.027-1.808-6.95c0-4.922,3.053-7.393,3.053-7.393l36.479,3.169
				c3.961,0.344,6.892,3.833,6.548,7.794l0,0c-0.344,3.961-3.833,6.892-7.794,6.548L127.891,261.888z"/>
			<path style="fill:#DBECF8;" d="M153.994,240.383l-12.226,2.014c-1.292,0.213-2.512-0.662-2.725-1.954l-3.807-23.112
				c-0.213-1.292,0.662-2.512,1.954-2.725l12.226-2.014c1.292-0.213,2.512,0.662,2.725,1.954l3.807,23.112
				C156.161,238.95,155.286,240.17,153.994,240.383z"/>
			<path style="fill:#C3DFF6;" d="M152.878,240.523l-12.226,2.014c-1.292,0.213-2.512-0.662-2.725-1.954l-3.807-23.112
				c-0.213-1.292,0.662-2.512,1.954-2.725l12.226-2.014c1.292-0.213,2.512,0.662,2.725,1.954l3.807,23.112
				C155.045,239.09,154.17,240.31,152.878,240.523z"/>
			<path style="fill:#FFCED9;" d="M178.367,223.452l8.832,1.161c0,0-4.488,21.68-19.543,20.26
				c-11.643-1.098-15.075-10.711-15.075-10.711s-4.76-7.537-2.38-9.917c3.098-3.098,8.727,5.951,8.727,5.951s1.221,5.16,8.727,5.951
				C175.194,236.94,178.367,223.452,178.367,223.452z"/>
			<g>
				
					<line style="fill:none;stroke:#E4A7B7;stroke-width:0.5;stroke-linecap:round;stroke-linejoin:round;stroke-miterlimit:10;" x1="149.618" y1="225.264" x2="151.758" y2="229.171"/>
				
					<line style="fill:none;stroke:#E4A7B7;stroke-width:0.5;stroke-linecap:round;stroke-linejoin:round;stroke-miterlimit:10;" x1="150.734" y1="223.962" x2="153.432" y2="228.427"/>
				
					<line style="fill:none;stroke:#E4A7B7;stroke-width:0.5;stroke-linecap:round;stroke-linejoin:round;stroke-miterlimit:10;" x1="152.409" y1="223.683" x2="155.199" y2="227.869"/>
			</g>
			
				<line style="fill:none;stroke:#DA822C;stroke-width:0.75;stroke-linecap:round;stroke-linejoin:round;stroke-miterlimit:10;" x1="179.199" y1="216.52" x2="178.367" y2="223.452"/>
			<g>
				<path style="fill:#ECB3C2;" d="M162.07,206.096v-14.43h11.504v14.43c0,0-1.582,3.954-6.86,4.165
					C162.995,210.411,162.07,206.096,162.07,206.096z"/>
				<path style="fill:#FFCED9;" d="M174.309,191.861c0,5.944-6.018,10.762-11.15,10.762c-5.132,0-7.433-4.818-7.433-10.762v-8.404
					c0-1.444,1.021-2.609,2.268-2.586l11.203,0.202c2.863,0.052,5.156,2.766,5.138,6.082L174.309,191.861z"/>
				<path style="fill:#2B5598;" d="M167.518,185.06c0,0-11.842,0.117-13.953-0.352c-2.111-0.469-2.697-7.973,2.345-8.325
					c5.042-0.352,18.532-3.233,21.457,5.98c1.348,4.245-1.759,12.194-3.283,13.25c-1.524,1.055-3.4-0.938-3.4-4.221
					C170.683,188.109,170.332,185.412,167.518,185.06z"/>
				<path style="fill:#FFCED9;" d="M173.954,190.625c0,1.89-1.232,3.422-2.752,3.422c-1.52,0-2.752-1.532-2.752-3.422
					c0-1.89,1.232-3.422,2.752-3.422C172.722,187.204,173.954,188.736,173.954,190.625z"/>
				<path style="fill:none;stroke:#E4A7B7;stroke-width:0.5;stroke-linecap:round;stroke-linejoin:round;stroke-miterlimit:10;" d="
					M171.385,188.985c0,0,1.488,0.651,0.186,3.07"/>
				<path style="fill:#2B5598;" d="M168.45,183.336c0,0,0,8.331,0.446,8.48c0.446,0.149,1.488-5.653,1.934-5.802
					C171.277,185.865,168.45,183.336,168.45,183.336z"/>
				<path style="fill:#4A78BB;" d="M160.758,178.424c0,0.476-4.392,1.584-5.233,1.584c-0.841,0-1.522-0.386-1.522-0.862
					s0.336-1.42,2.778-1.42C159.013,177.727,160.758,177.948,160.758,178.424z"/>
				<g>
					<path style="fill:#2B5598;" d="M174.64,176.783c0.054,0.804-0.941,1.525-0.941,1.525s-1.083-0.581-1.137-1.385
						c-0.054-0.803,0.367-1.486,0.941-1.525C174.077,175.359,174.586,175.98,174.64,176.783z"/>
					<path style="fill:#2B5598;" d="M175.811,178.751c-0.672,0.443-1.791-0.067-1.791-0.067s-0.028-1.229,0.644-1.672
						c0.672-0.443,1.474-0.413,1.791,0.067C176.772,177.559,176.484,178.307,175.811,178.751z"/>
				</g>
			</g>
			<path style="fill:#FBFBFB;" d="M160.13,197.543l4.93-0.279c0,0-0.743,1.86-2.634,1.86
				C160.535,199.125,160.13,197.543,160.13,197.543z"/>
		</g>
		<g>
			<g>
				<path style="fill:#396FBB;" d="M262.234,326.07v-0.501h-30.648l-0.162,5.771c0,5.019,6.897,9.088,15.405,9.088
					c1.517,0,2.979-0.135,4.364-0.376l-0.019,0.04h15.812l4.841-13.658L262.234,326.07z"/>
				<path style="fill:#FFCED9;" d="M267.832,297.827c0,0-0.668,4.158,3.596,4.158s11.459-9.594,11.459-9.594
					s2.988-4.615,4.264-4.797c1.555-0.222,0.355,2.265,0.355,2.265s4.275-3.975,6.84-2.532c4.264,2.398-6.396,10.66-6.396,10.66
					s-10.393,13.591-18.921,12.259c-12.707-1.985-10.66-14.657-10.66-14.657L267.832,297.827z"/>
				<path style="fill:#EEA752;" d="M250.785,297.827c0-8.787,0.596-15.911,5.304-15.911c6.819,0,11.744,7.124,11.744,15.911H250.785
					z"/>
				<path style="fill:#2B5598;" d="M276.24,367.944c0,0,10.006,2.672,11.247,5.774c1.31,3.276,0.655,5.242,0.655,5.242
					s-22.606,0.983-22.606-1.638c0-2.621-0.334-9.378-0.334-9.378H276.24z"/>
				<path style="fill:#EEA752;" d="M231.465,297.817v28.375h32.674v-28.375c0,0-0.675-15.458-12.819-16.649
					C228.055,278.885,231.465,297.817,231.465,297.817z"/>
				
					<path style="fill:none;stroke:#DA822C;stroke-width:0.75;stroke-linecap:round;stroke-linejoin:round;stroke-miterlimit:10;" d="
					M263.7,292.746c0,0,0.344,1.702,0.438,5.07"/>
				
					<path style="fill:none;stroke:#DA822C;stroke-width:0.75;stroke-linecap:round;stroke-linejoin:round;stroke-miterlimit:10;" d="
					M231.987,297.987c0,0,1.333,6.485,2.043,6.574"/>
				<path style="fill:#4675D2;" d="M264.492,368.299c0,0,1.073,2.843,6.403,2.709c5.33-0.134,7.345-2.709,7.345-2.709v-34.967
					c0-3.796-3.077-6.874-6.874-6.874l0,0c-3.796,0-6.874,3.078-6.874,6.874V368.299z"/>
				<path style="fill:#2B5598;" d="M257.586,367.944c0,0,10.006,2.672,11.247,5.774c1.31,3.276,0.655,5.242,0.655,5.242
					s-22.606,0.983-22.606-1.638c0-2.621-0.334-9.378-0.334-9.378H257.586z"/>
				<path style="fill:#4675D2;" d="M245.837,368.299c0,0,1.073,2.843,6.403,2.709c5.33-0.134,7.345-2.709,7.345-2.709v-34.967
					c0-3.796-3.078-6.874-6.874-6.874l0,0c-3.796,0-6.874,3.078-6.874,6.874V368.299z"/>
				<g>
					<path style="fill:#ECB3C2;" d="M255.362,283.147v-13.78h-10.986v13.78c0,0,1.51,3.776,6.551,3.978
						C254.478,287.267,255.362,283.147,255.362,283.147z"/>
					<path style="fill:#FFCED9;" d="M243.675,269.553c0,5.676,5.747,10.277,10.648,10.277c4.901,0,7.099-4.601,7.099-10.277v-8.026
						c0-1.379-0.975-2.491-2.166-2.47l-10.699,0.193c-2.734,0.049-4.924,2.641-4.906,5.808L243.675,269.553z"/>
					<path style="fill:#2B5598;" d="M250.16,263.059c0,0,11.309,0.112,13.324-0.336c2.016-0.448,2.575-7.614-2.239-7.95
						c-4.815-0.336-17.697-3.087-20.49,5.71c-1.287,4.054,1.68,11.645,3.135,12.653c1.456,1.008,3.247-0.896,3.247-4.031
						S247.473,263.395,250.16,263.059z"/>
					<path style="fill:#FFCED9;" d="M244.013,268.373c0,1.805,1.177,3.267,2.628,3.267c1.451,0,2.628-1.463,2.628-3.267
						c0-1.805-1.177-3.267-2.628-3.267C245.19,265.106,244.013,266.568,244.013,268.373z"/>
					<path style="fill:#2B5598;" d="M249.27,261.412c0,0,0,7.955-0.426,8.098c-0.426,0.142-1.421-5.398-1.847-5.54
						C246.57,263.827,249.27,261.412,249.27,261.412z"/>
					<path style="fill:#4A78BB;" d="M256.451,256.648c0,0.455,4.194,1.513,4.997,1.513c0.803,0,1.454-0.368,1.454-0.823
						c0-0.455-0.321-1.356-2.653-1.356C258.117,255.982,256.451,256.193,256.451,256.648z"/>
					<g>
						<path style="fill:#2B5598;" d="M243.46,254.814c-0.052,0.767,0.899,1.456,0.899,1.456s1.035-0.555,1.086-1.322
							c0.052-0.767-0.35-1.419-0.899-1.456C243.998,253.454,243.512,254.046,243.46,254.814z"/>
						<path style="fill:#2B5598;" d="M242.342,256.693c0.642,0.423,1.71-0.064,1.71-0.064s0.027-1.174-0.615-1.597
							c-0.642-0.423-1.408-0.395-1.71,0.064S241.7,256.27,242.342,256.693z"/>
					</g>
					<path style="fill:#FBFBFB;" d="M253.04,274.002h5.508c0,0-0.165,2.487-2.132,2.398
						C254.449,276.312,253.04,274.002,253.04,274.002z"/>
				</g>
				<path style="fill:#DBECF8;" d="M246.378,280.398h-2.933c-1.398,0-2.532-1.134-2.532-2.532v-11.459
					c0-1.398,1.133-2.532,2.532-2.532h2.933c1.398,0,2.532,1.134,2.532,2.532v11.459
					C248.91,279.265,247.777,280.398,246.378,280.398z"/>
				<path style="fill:#C3DFF6;" d="M245.386,280.487h-2.264c-1.308,0-2.369-1.061-2.369-2.369v-11.785
					c0-1.308,1.061-2.369,2.369-2.369h2.264c1.309,0,2.369,1.061,2.369,2.369v11.785
					C247.755,279.427,246.695,280.487,245.386,280.487z"/>
				<path style="fill:#FFCED9;" d="M240.781,274.269c3.198-1.066,9.239-0.711,9.239-0.711s0.444,7.018-2.487,7.018
					c-2.931,0-3.287,1.688-3.287,1.688l-0.659,21.51c-0.078,2.567-2.182,4.607-4.75,4.607l0,0c-2.905,0-5.13-2.584-4.7-5.457
					C234.138,302.924,237.368,275.407,240.781,274.269z"/>
				<path style="fill:#FFCED9;" d="M239.493,275.735c0,0,0.666-3.376,1.199-3.82c0.533-0.444,1.199,2.754,1.199,2.754
					L239.493,275.735z"/>
				<g>
					
						<line style="fill:none;stroke:#E4A7B7;stroke-width:0.4815;stroke-linecap:round;stroke-linejoin:round;stroke-miterlimit:10;" x1="246.541" y1="275.513" x2="249.753" y2="274.98"/>
					
						<line style="fill:none;stroke:#E4A7B7;stroke-width:0.4815;stroke-linecap:round;stroke-linejoin:round;stroke-miterlimit:10;" x1="246.417" y1="277.445" x2="249.63" y2="276.912"/>
					
						<line style="fill:none;stroke:#E4A7B7;stroke-width:0.4815;stroke-linecap:round;stroke-linejoin:round;stroke-miterlimit:10;" x1="246.355" y1="279.31" x2="249.568" y2="278.777"/>
				</g>
			</g>
			<g>
				
					<line style="fill:none;stroke:#E4A7B7;stroke-width:0.4815;stroke-linecap:round;stroke-linejoin:round;stroke-miterlimit:10;" x1="288.307" y1="291.817" x2="292.911" y2="287.763"/>
				
					<line style="fill:none;stroke:#E4A7B7;stroke-width:0.4815;stroke-linecap:round;stroke-linejoin:round;stroke-miterlimit:10;" x1="289.758" y1="292.818" x2="294.913" y2="288.313"/>
				
					<line style="fill:none;stroke:#E4A7B7;stroke-width:0.4815;stroke-linecap:round;stroke-linejoin:round;stroke-miterlimit:10;" x1="290.909" y1="294.119" x2="295.414" y2="290.265"/>
			</g>
		</g>
	</g>
	<line style="fill:#EEA752;" x1="177.404" y1="230.496" x2="177.869" y2="221.007"/>
	<path style="fill:none;stroke:#DA822C;stroke-width:0.75;stroke-linecap:round;stroke-linejoin:round;stroke-miterlimit:10;" d="
		M249.881,309.759"/>
</g>
<g id="DESIGNED_BY_FREEPIK">
	<g>
		<g id="XMLID_1_">
			<g id="XMLID_20_">
				<path id="XMLID_28_" style="fill:#A4B6C5;" d="M260.104,465.465c-0.432,0.443-0.803,0.931-1.108,1.453l-0.465-0.241
					c-0.067-0.298-0.349-0.503-0.659-0.466c-0.331,0.039-0.568,0.339-0.529,0.67s0.339,0.568,0.67,0.529
					c0.065-0.008,0.127-0.026,0.184-0.052l0.452,0.234c-0.251,0.554-0.433,1.139-0.539,1.744l0.746,0.132
					c0.23-1.306,0.85-2.507,1.792-3.473L260.104,465.465z"/>
				<path id="XMLID_27_" style="fill:#A4B6C5;" d="M265.592,463.163c-0.171,0-0.341,0.006-0.51,0.017l-0.074-0.626
					c0.188-0.149,0.296-0.389,0.266-0.645c-0.046-0.393-0.402-0.674-0.795-0.628s-0.674,0.402-0.628,0.795
					c0.03,0.254,0.189,0.461,0.405,0.564l0.073,0.624c-0.714,0.116-1.403,0.332-2.06,0.646l0.327,0.684
					c0.934-0.447,1.942-0.673,2.995-0.673c0.496,0,0.993,0.053,1.475,0.158l0.161-0.741
					C266.693,463.222,266.142,463.163,265.592,463.163z"/>
				<path id="XMLID_26_" style="fill:#A4B6C5;" d="M272.194,465.711c0.331-0.04,0.566-0.341,0.525-0.672
					c-0.04-0.331-0.341-0.566-0.672-0.526c-0.309,0.038-0.535,0.304-0.53,0.609l-0.416,0.363c-0.418-0.43-0.89-0.813-1.408-1.139
					l-0.404,0.641c1.134,0.715,2.021,1.726,2.563,2.925l0.69-0.313c-0.251-0.554-0.568-1.072-0.942-1.545l0.402-0.351
					C272.065,465.716,272.129,465.719,272.194,465.711z"/>
				<path id="XMLID_25_" style="fill:#A4B6C5;" d="M265.044,473.372c-0.386,0.023-0.775,0.035-1.157,0.035
					c-0.88,0-1.733-0.061-2.478-0.179c-0.39-0.062-0.846-0.155-1.27-0.292c1.046,1.861,3.069,3.125,5.388,3.125
					c2.855,0,5.262-1.916,5.95-4.504c-0.682,0.449-1.505,0.825-2.459,1.123C267.839,473.047,266.464,473.286,265.044,473.372z"/>
				<path id="XMLID_21_" style="fill:#A4B6C5;" d="M265.592,464.68c-3.352,0-6.08,2.666-6.08,5.943c0,0.426,0.046,0.849,0.137,1.261
					c0.673,0.483,2.706,0.89,5.347,0.731c2.879-0.173,5.297-0.957,6.672-2.159c-0.005-0.195-0.021-0.39-0.045-0.582
					C271.244,466.913,268.651,464.68,265.592,464.68z M263.432,471.194c-1.02,0-1.85-0.83-1.85-1.85c0-1.02,0.83-1.85,1.85-1.85
					c1.02,0,1.85,0.83,1.85,1.85C265.282,470.365,264.452,471.194,263.432,471.194z M268.17,470.286c-0.75,0-1.36-0.61-1.36-1.36
					s0.61-1.361,1.36-1.361c0.75,0,1.361,0.61,1.361,1.361S268.92,470.286,268.17,470.286z"/>
			</g>
			<path id="XMLID_18_" style="fill:#A4B6C5;" d="M281.595,466.547c-0.295-0.116-0.806-0.309-1.382-0.237
				c-0.551,0.069-0.844,0.341-0.844,1.007v0.866h2.228v1.717h-2.228v5.455h-1.932v-5.455h-1.34v-1.717h1.34v-0.888
				c0-1.68,0.895-2.783,2.568-2.783c0.642,0,1.157,0.122,1.59,0.308L281.595,466.547z"/>
			<path id="XMLID_16_" style="fill:#A4B6C5;" d="M286.298,469.879c-0.177-0.03-0.358-0.046-0.526-0.046
				c-0.896,0-1.51,0.548-1.51,1.614v3.908h-1.932v-7.172h1.873v0.785c0.451-0.673,1.14-0.977,2.021-0.977
				c0.414,0,0.848,0.128,1.094,0.337L286.298,469.879z"/>
			<path id="XMLID_13_" style="fill:#A4B6C5;" d="M293.965,471.757c0,0.222-0.015,0.489-0.037,0.651h-5.085
				c0.207,1.036,0.933,1.488,1.843,1.488c0.622,0,1.295-0.252,1.813-0.688l1.133,1.243c-0.814,0.748-1.85,1.088-3.057,1.088
				c-2.198,0-3.723-1.495-3.723-3.753c0-2.258,1.48-3.797,3.626-3.797C292.544,467.99,293.958,469.522,293.965,471.757z
				 M288.851,471.091h3.175c-0.178-0.918-0.733-1.436-1.562-1.436C289.554,469.655,289.021,470.203,288.851,471.091z"/>
			<path id="XMLID_10_" style="fill:#A4B6C5;" d="M301.618,471.757c0,0.222-0.015,0.489-0.037,0.651h-5.085
				c0.207,1.036,0.932,1.488,1.843,1.488c0.622,0,1.295-0.252,1.813-0.688l1.132,1.243c-0.814,0.748-1.85,1.088-3.057,1.088
				c-2.198,0-3.723-1.495-3.723-3.753c0-2.258,1.48-3.797,3.627-3.797C300.197,467.99,301.611,469.522,301.618,471.757z
				 M296.504,471.091h3.175c-0.178-0.918-0.733-1.436-1.562-1.436C297.207,469.655,296.674,470.203,296.504,471.091z"/>
			<path id="XMLID_7_" style="fill:#A4B6C5;" d="M309.964,471.764c0,2.154-1.495,3.775-3.471,3.775
				c-0.962,0-1.643-0.378-2.109-0.933v3.708h-1.924v-10.133h1.887v0.792c0.466-0.585,1.155-0.984,2.139-0.984
				C308.469,467.99,309.964,469.61,309.964,471.764z M304.287,471.764c0,1.132,0.747,1.976,1.843,1.976
				c1.14,0,1.85-0.881,1.85-1.976c0-1.095-0.711-1.976-1.85-1.976C305.035,469.788,304.287,470.632,304.287,471.764z"/>
			<path id="XMLID_4_" style="fill:#A4B6C5;" d="M313.068,465.836c0,0.696-0.54,1.229-1.236,1.229c-0.696,0-1.229-0.533-1.229-1.229
				c0-0.696,0.533-1.243,1.229-1.243C312.527,464.592,313.068,465.14,313.068,465.836z M312.809,475.354h-1.932v-7.172h1.932
				V475.354z"/>
			<path id="XMLID_2_" style="fill:#A4B6C5;" d="M316.032,470.736l2.702-2.554h2.368l-3.479,3.375l3.501,3.797h-2.376l-2.716-2.901
				v2.901H314.1v-10.658h1.932V470.736z"/>
		</g>
		<g>
			<path style="fill:#A4B6C5;" d="M184.412,475.289v-1.055c-0.527,0.718-1.391,1.23-2.387,1.23c-1.846,0-3.149-1.406-3.149-3.706
				c0-2.256,1.289-3.721,3.149-3.721c0.952,0,1.816,0.469,2.387,1.245v-3.765h1.099v9.77H184.412z M184.412,473.37v-3.208
				c-0.395-0.615-1.245-1.143-2.124-1.143c-1.421,0-2.27,1.172-2.27,2.739c0,1.567,0.85,2.724,2.27,2.724
				C183.168,474.483,184.017,473.986,184.412,473.37z"/>
			<path style="fill:#A4B6C5;" d="M186.932,471.744c0-2.051,1.465-3.706,3.486-3.706c2.139,0,3.398,1.67,3.398,3.794v0.279h-5.727
				c0.088,1.333,1.025,2.446,2.549,2.446c0.806,0,1.626-0.322,2.182-0.894l0.527,0.718c-0.703,0.703-1.655,1.084-2.812,1.084
				C188.441,475.465,186.932,473.956,186.932,471.744z M190.404,468.947c-1.509,0-2.256,1.274-2.314,2.358h4.643
				C192.718,470.25,192.015,468.947,190.404,468.947z"/>
			<path style="fill:#A4B6C5;" d="M194.607,474.351l0.571-0.791c0.469,0.542,1.362,1.011,2.329,1.011c1.084,0,1.67-0.513,1.67-1.216
				c0-1.714-4.38-0.659-4.38-3.281c0-1.098,0.952-2.036,2.636-2.036c1.201,0,2.051,0.454,2.622,1.026l-0.513,0.762
				c-0.424-0.513-1.201-0.894-2.109-0.894c-0.967,0-1.567,0.483-1.567,1.113c0,1.552,4.38,0.527,4.38,3.281
				c0,1.187-0.952,2.138-2.783,2.138C196.306,475.465,195.325,475.113,194.607,474.351z"/>
			<path style="fill:#A4B6C5;" d="M201.477,466.471c0-0.41,0.337-0.747,0.732-0.747c0.41,0,0.747,0.337,0.747,0.747
				c0,0.41-0.337,0.732-0.747,0.732C201.814,467.203,201.477,466.881,201.477,466.471z M201.667,475.289v-7.075h1.099v7.075H201.667
				z"/>
			<path style="fill:#A4B6C5;" d="M204.582,477.105l0.556-0.82c0.586,0.703,1.289,0.967,2.3,0.967c1.172,0,2.27-0.571,2.27-2.124
				v-1.011c-0.513,0.718-1.377,1.26-2.373,1.26c-1.845,0-3.149-1.377-3.149-3.662c0-2.27,1.289-3.677,3.149-3.677
				c0.952,0,1.802,0.469,2.373,1.245v-1.069h1.099v6.87c0,2.344-1.641,3.076-3.369,3.076
				C206.237,478.16,205.417,477.926,204.582,477.105z M209.709,473.253v-3.091c-0.381-0.615-1.23-1.143-2.109-1.143
				c-1.421,0-2.27,1.128-2.27,2.695c0,1.553,0.849,2.695,2.27,2.695C208.478,474.41,209.328,473.868,209.709,473.253z"/>
			<path style="fill:#A4B6C5;" d="M217.413,475.289v-4.629c0-1.245-0.63-1.641-1.582-1.641c-0.865,0-1.685,0.527-2.095,1.099v5.17
				h-1.099v-7.075h1.099v1.025c0.498-0.586,1.464-1.201,2.519-1.201c1.48,0,2.256,0.747,2.256,2.285v4.966H217.413z"/>
			<path style="fill:#A4B6C5;" d="M219.932,471.744c0-2.051,1.465-3.706,3.486-3.706c2.139,0,3.398,1.67,3.398,3.794v0.279h-5.727
				c0.088,1.333,1.025,2.446,2.549,2.446c0.806,0,1.626-0.322,2.183-0.894l0.527,0.718c-0.703,0.703-1.655,1.084-2.812,1.084
				C221.441,475.465,219.932,473.956,219.932,471.744z M223.404,468.947c-1.509,0-2.256,1.274-2.314,2.358h4.643
				C225.718,470.25,225.015,468.947,223.404,468.947z"/>
			<path style="fill:#A4B6C5;" d="M233.35,475.289v-1.055c-0.527,0.718-1.392,1.23-2.388,1.23c-1.846,0-3.149-1.406-3.149-3.706
				c0-2.256,1.289-3.721,3.149-3.721c0.952,0,1.817,0.469,2.388,1.245v-3.765h1.098v9.77H233.35z M233.35,473.37v-3.208
				c-0.396-0.615-1.245-1.143-2.124-1.143c-1.421,0-2.27,1.172-2.27,2.739c0,1.567,0.849,2.724,2.27,2.724
				C232.105,474.483,232.954,473.986,233.35,473.37z"/>
			<path style="fill:#A4B6C5;" d="M239.692,475.289v-9.77h1.098v3.765c0.572-0.776,1.421-1.245,2.388-1.245
				c1.845,0,3.149,1.465,3.149,3.721c0,2.299-1.304,3.706-3.149,3.706c-0.996,0-1.86-0.513-2.388-1.23v1.055H239.692z
				 M242.9,474.483c1.436,0,2.286-1.157,2.286-2.724c0-1.568-0.85-2.739-2.286-2.739c-0.864,0-1.728,0.527-2.109,1.143v3.208
				C241.171,473.986,242.036,474.483,242.9,474.483z"/>
			<path style="fill:#A4B6C5;" d="M247.529,477.061c0.161,0.073,0.425,0.117,0.601,0.117c0.483,0,0.805-0.161,1.055-0.747
				l0.469-1.069l-2.959-7.148h1.187l2.358,5.8l2.344-5.8h1.201l-3.545,8.51c-0.425,1.025-1.143,1.421-2.08,1.435
				c-0.234,0-0.601-0.044-0.805-0.103L247.529,477.061z"/>
		</g>
	</g>
</g>
</svg>
